<svg width="120" height="120" viewBox="0 0 120 120" fill="none" xmlns="http://www.w3.org/2000/svg">
<g fill="#1890ff" fill-opacity="1">
<path d="M60 10c-27.6 0-50 22.4-50 50S32.4 110 60 110s50-22.4 50-50S87.6 10 60 10z"/>
<path d="M50 30c-5.5 0-10 4.5-10 10 0 5.5 4.5 10 10 10s10-4.5 10-10c0-5.5-4.5-10-10-10z"/>
<path d="M50 60c0-5.5 4.5-10 10-10 5.5 0 10 4.5 10 10 0 5.5-4.5 10-10 10S60 65.5 60 60C54.5 60 50 60 50 60z"/>
<path d="M50 90c0-5.5 4.5-10 10-10 5.5 0 10 4.5 10 10 0 5.5-4.5 10-10 10S60 95.5 60 90C54.5 90 50 90 50 90z"/>
<path d="M90 30h-10v20h10v-20zM90 60h-10v20h10v-20zM90 90h-10v20h10v-20z"/>
<path d="M20 30h-10v20h10v-20zM20 60h-10v20h10v-20zM20 90h-10v20h10v-20z"/>
</g>
</svg>