<svg width="80" height="80" viewBox="0 0 80 80" fill="none" xmlns="http://www.w3.org/2000/svg">
<rect x="40" y="20" width="30" height="30" rx="20" fill="#f8f8f8"/>
<circle cx="40" cy="30" r="15" fill="#9dce91"/>
<circle cx="29" cy="27" r="1.5" fill="#ffffff"/>
<circle cx="51" cy="27" r="1.5" fill="#ffffff"/>
<path d="M40 46c1.3 0 2.5.5 3.4.13c.9-.4 1.5-1.3 1.5-2.4s-.6-2.1-1.5-2.5c-.8-.3-1.9.1-2.4.1s-1.6-.4-2.4-.1c-.9.4-1.5 1.3-1.5 2.4s.6 2.1 1.5 2.5c.8.3 2.0 0 2.4.1s.6-.2 1.1-.9"/>
<path d="M40 43c1.3 0 2.5.5 3.4.13c.9-.4 1.5-1.3 1.5-2.4s-.6-2.1-1.5-2.5c-.8-.3-1.9.1-2.4.1s-1.6-.4-2.4-.1c-.9.4-1.5 1.3-1.5 2.4s.6 2.1 1.5 2.5c.8.3 2.0 0 2.4.1s.6-.2 1.1-.9"/>
</svg>